<?xml version="1.0" encoding="utf-8"?>
<!-- Generator: Adobe Illustrator 20.1.0, SVG Export Plug-In . SVG Version: 6.00 Build 0)  -->
<svg version="1.1" id="Layer_1" xmlns="http://www.w3.org/2000/svg" xmlns:xlink="http://www.w3.org/1999/xlink" x="0px" y="0px"
	 viewBox="0 0 56.7 56.7" style="enable-background:new 0 0 56.7 56.7;" xml:space="preserve">
<style type="text/css">
	.st0{fill:#338FCE;}
</style>
<g id="b94ihL.tif">
	<g>
		<path class="st0" d="M15.9,12.8c-1.4,0.5-1.9-0.6-2.6-1.5C11.8,9,10.2,6.7,8.7,4.4C8.5,4.1,8.3,3.7,8.1,3.3C8.1,3.2,8.2,3.1,8.3,3
			c0.4,0.2,0.8,0.3,1.1,0.5c1.8,1.3,3.5,2.9,5.3,4.1c2,1.4,3.6,3.1,4.8,5.3c0.5,1,1.4,1.5,2.3,1.9c3.4,1.6,6.9,0.9,10.4,0.8
			c3.9-0.1,7.9-0.7,11.7,0.9c1.3,0.5,2.7,1.2,3.9,2.1c1.8,1.2,3.4,2.6,5.1,3.9c0.8,0.6,1,1.7,0.6,2.6c-0.4,0.9-1.6,1.5-2.4,1
			c-1.1-0.6-2.1-1.3-3.1-2c-3-2-6.2-3.7-9.7-3.8c-2.7-0.1-5.4,0.3-8.1,0.6c-2.2,0.2-4.4,0.6-6.5-0.6c-1.1-0.7-1.5,0.3-1.9,1
			c-0.2,0.3,0,1.1,0.2,1.5c1.2,1.7,2.4,3.4,3.7,5.2c-0.4-0.1-0.8-0.3-1.4-0.4c0.2,1.5,0.6,2.9,0.7,4.4c0.5,5.1,1.9,9.8,5.1,13.6
			c1.2,1.4,2.6,2.6,3.9,3.8c0.6,0.6,1.2,1.2,0.9,2.2c-0.2,1-0.5,2-1.6,2.2c-0.4,0-0.8,0-1.1-0.1c-6.7-4.4-11-10.6-11.8-19.6
			c-0.2-2.2-0.3-4.4-0.8-6.5c-0.2-1.1-1-2.2-1.6-3.2c-1.1-1.7-2.1-3.5-4.1-4.1c-1.8-0.5-3.1-1.8-4.5-3.1c-2-1.9-4.1-3.7-6.2-5.6
			c-0.3-0.2-0.3-0.8-0.5-1.2c0.4,0,0.8-0.1,1,0c2.8,1.1,5.5,2.3,8.3,3.6c0.4,0.2,0.7,0.8,1,1.3c0.2,0.3,0.4,0.8,0.6,0.8
			c0.3,0,0.8-0.2,1-0.5c0.5-0.7,0.8-1.5,1.2-2.2C16,13.1,15.9,12.9,15.9,12.8z"/>
		<path class="st0" d="M26.4,22.4c0.8,0.1,1.7,0.3,2.5,0.4c0,0.1,0,0.3,0,0.5c-0.8-0.1-1.7-0.2-2.5-0.3
			C26.4,22.8,26.4,22.6,26.4,22.4z"/>
		<path class="st0" d="M27.9,25.1c-0.8-0.3-1.7-0.6-2.5-0.9c0.1-0.2,0.1-0.4,0.2-0.5c0.8,0.3,1.6,0.7,2.4,1
			C28,24.8,27.9,24.9,27.9,25.1z"/>
		<path class="st0" d="M26.9,26.7c-0.8-0.5-1.5-0.9-2.2-1.4c0.1-0.1,0.1-0.3,0.2-0.4c0.8,0.5,1.5,0.9,2.2,1.4
			C27,26.4,26.9,26.5,26.9,26.7z"/>
	</g>
</g>
</svg>
