<?xml version="1.0" encoding="utf-8"?>
<!-- Generator: Adobe Illustrator 20.1.0, SVG Export Plug-In . SVG Version: 6.00 Build 0)  -->
<svg version="1.1" id="Layer_1" xmlns="http://www.w3.org/2000/svg" xmlns:xlink="http://www.w3.org/1999/xlink" x="0px" y="0px"
	 viewBox="0 0 56.7 56.7" style="enable-background:new 0 0 56.7 56.7;" xml:space="preserve">
<style type="text/css">
	.st0{fill:#2990D8;}
</style>
<g>
	<g>
		<path class="st0" d="M28.3,10.7c-12.7,0-23,10.3-23,23s10.3,23,23,23s23-10.3,23-23S41,10.7,28.3,10.7z M28.3,53.2
			c-10.7,0-19.5-8.7-19.5-19.5c0-10.7,8.7-19.5,19.5-19.5c10.7,0,19.5,8.7,19.5,19.5C47.8,44.4,39,53.2,28.3,53.2z M11.1,10.9
			c-0.5-0.9-0.2-1.9,0.6-2.4l3.1-1.8c0.8-0.5,1.9-0.2,2.4,0.7l1.9,3.3c-2.2,0.9-4.3,2.1-6.1,3.5L11.1,10.9z M43.6,14.2
			c-1.8-1.5-3.9-2.7-6.1-3.5l1.9-3.3c0.5-0.9,1.6-1.1,2.4-0.7l3.1,1.8c0.9,0.5,1.1,1.6,0.7,2.4L43.6,14.2z M23,5.4V1.8
			c0-1,0.8-1.8,1.8-1.8h7.1c1,0,1.8,0.8,1.8,1.8v3.5c0,1-0.8,1.8-1.8,1.8v2.1c-1.2-0.2-2.3-0.3-3.5-0.3S25.9,9,24.8,9.2V7.1
			C23.8,7.1,23,6.4,23,5.4z"/>
	</g>
	<g>
		<path class="st0" d="M28.3,38.3c-1.2,0-2.2-1-2.2-2.2V20.7c0-1.2,1-2.2,2.2-2.2s2.2,1,2.2,2.2v15.4C30.5,37.3,29.5,38.3,28.3,38.3
			z"/>
	</g>
	<g>
		<circle class="st0" cx="28.3" cy="35.2" r="3.5"/>
	</g>
</g>
</svg>
