<?xml version="1.0" encoding="utf-8"?>
<!-- Generator: Adobe Illustrator 20.1.0, SVG Export Plug-In . SVG Version: 6.00 Build 0)  -->
<svg version="1.1" id="Layer_1" xmlns="http://www.w3.org/2000/svg" xmlns:xlink="http://www.w3.org/1999/xlink" x="0px" y="0px"
	 viewBox="0 0 56.7 56.7" style="enable-background:new 0 0 56.7 56.7;" xml:space="preserve">
<style type="text/css">
	.st0{fill:#EFB41D;}
</style>
<path class="st0" d="M28.4,0.3C14.1,0.3,3,11.8,3,25.7c0,16.1,4.5,17.8,11.2,17.1c0,0,2.4,13.6,6.6,13.6s8,0,8,0s3.8,0,7.7,0
	s6.6-13.6,6.6-13.6c6.6,0.7,11.2-1,11.2-17.1C54.3,11.8,42.8,0.3,28.4,0.3z M14.3,34.5c-3.5-1.1-5.2-5.5-3.8-10
	c1.4-4.5,5.3-7.1,8.8-6c3.5,1.1,5.2,5.5,3.8,10C21.8,32.8,17.8,35.6,14.3,34.5z M28.8,41c-2.8,0-5.2,5.9-5.2-0.3c0-0.3,0-0.7,0-1
	c0.7-2.8,3.1-7.3,4.9-7.3c2.1,0,5.2,5.2,5.2,7.7c0,0,0,0.3,0.3,0.7C34,46.7,31.2,41,28.8,41z M43.1,34.4c-3.5,1.1-7.4-1.6-8.8-6
	c-1.4-4.5,0.4-8.9,3.8-10c3.5-1.1,7.4,1.6,8.8,6C48.3,28.9,46.6,33.3,43.1,34.4z"/>
</svg>
